<svg xmlns="http://www.w3.org/2000/svg" viewBox="0 0 720 360" width="720" height="360" role="img" aria-label="Maple 10K: apogee 3044 m (9987 ft)">
<style>
.bg{fill:#fcfcfb}.grid{stroke:#e4e3de;stroke-width:1}.axis{stroke:#b8b7ae;stroke-width:1}.t1{fill:#1a1a19;font:600 15px system-ui,sans-serif}.t2{fill:#5f5e57;font:12px system-ui,sans-serif}.series{fill:none;stroke:#2a78d6;stroke-width:2;stroke-linejoin:round;stroke-linecap:round}.series2{fill:none;stroke:#d9480f;stroke-width:2;stroke-dasharray:5 3}.ref{stroke:#5f5e57;stroke-width:1.5;stroke-dasharray:6 4}.mark{stroke:#b8b7ae;stroke-width:1}
@media (prefers-color-scheme: dark){.bg{fill:#1a1a19}.grid{stroke:#34332f}.axis{stroke:#5f5e57}.t1{fill:#ffffff}.t2{fill:#c3c2b7}.series{stroke:#3987e5}.series2{stroke:#f08c4f}.ref{stroke:#c3c2b7}.mark{stroke:#5f5e57}}
</style>
<rect class="bg" width="720" height="360"/>
<text class="t1" x="64" y="26">Maple 10K: apogee 3044 m (9987 ft)</text>
<line class="grid" x1="64" x2="696" y1="308.0" y2="308.0"/>
<text class="t2" x="56" y="312.0" text-anchor="end">0</text>
<line class="grid" x1="64" x2="696" y1="270.9" y2="270.9"/>
<text class="t2" x="56" y="274.9" text-anchor="end">500</text>
<line class="grid" x1="64" x2="696" y1="233.7" y2="233.7"/>
<text class="t2" x="56" y="237.7" text-anchor="end">1000</text>
<line class="grid" x1="64" x2="696" y1="196.6" y2="196.6"/>
<text class="t2" x="56" y="200.6" text-anchor="end">1500</text>
<line class="grid" x1="64" x2="696" y1="159.4" y2="159.4"/>
<text class="t2" x="56" y="163.4" text-anchor="end">2000</text>
<line class="grid" x1="64" x2="696" y1="122.3" y2="122.3"/>
<text class="t2" x="56" y="126.3" text-anchor="end">2500</text>
<line class="grid" x1="64" x2="696" y1="85.1" y2="85.1"/>
<text class="t2" x="56" y="89.1" text-anchor="end">3000</text>
<line class="grid" x1="64" x2="696" y1="48.0" y2="48.0"/>
<text class="t2" x="56" y="52.0" text-anchor="end">3500</text>
<text class="t2" x="64.0" y="326" text-anchor="middle">0</text>
<text class="t2" x="134.2" y="326" text-anchor="middle">20</text>
<text class="t2" x="204.4" y="326" text-anchor="middle">40</text>
<text class="t2" x="274.7" y="326" text-anchor="middle">60</text>
<text class="t2" x="344.9" y="326" text-anchor="middle">80</text>
<text class="t2" x="415.1" y="326" text-anchor="middle">100</text>
<text class="t2" x="485.3" y="326" text-anchor="middle">120</text>
<text class="t2" x="555.6" y="326" text-anchor="middle">140</text>
<text class="t2" x="625.8" y="326" text-anchor="middle">160</text>
<text class="t2" x="696.0" y="326" text-anchor="middle">180</text>
<line class="axis" x1="64" x2="696" y1="308" y2="308"/>
<text class="t2" x="380" y="348" text-anchor="middle">Time (s)</text>
<text class="t2" transform="translate(16 178) rotate(-90)" text-anchor="middle">Altitude above the pad (m)</text>
<line class="mark" x1="77.3" x2="77.3" y1="48" y2="308"/>
<text class="t2" x="81.3" y="60" text-anchor="start">burnout</text>
<line class="mark" x1="135.6" x2="135.6" y1="48" y2="308"/>
<text class="t2" x="139.6" y="60" text-anchor="start">apogee</text>
<line class="mark" x1="135.6" x2="135.6" y1="48" y2="308"/>
<text class="t2" x="139.6" y="74" text-anchor="start">drogue</text>
<line class="mark" x1="494.1" x2="494.1" y1="48" y2="308"/>
<text class="t2" x="498.1" y="60" text-anchor="start">main</text>
<path class="series" d="M64.0 308.0 L64.0 308.0 L64.1 308.0 L64.1 308.0 L64.1 308.0 L64.2 308.0 L64.2 308.0 L64.2 308.0 L64.3 308.0 L64.3 308.0 L64.3 308.0 L64.4 308.0 L64.4 308.0 L64.4 307.9 L64.5 307.9 L64.5 307.9 L64.6 307.9 L64.6 307.9 L64.6 307.9 L64.7 307.9 L64.7 307.8 L64.7 307.8 L64.8 307.8 L64.8 307.8 L64.8 307.7 L64.9 307.7 L64.9 307.7 L64.9 307.7 L65.0 307.6 L65.0 307.6 L65.0 307.6 L65.1 307.5 L65.1 307.5 L65.2 307.4 L65.4 307.2 L65.5 307.0 L65.7 306.7 L65.7 306.6 L65.8 306.6 L65.8 306.5 L65.9 306.3 L66.0 306.0 L66.2 305.8 L66.3 305.6 L66.3 305.3 L66.4 305.1 L66.6 304.8 L66.7 304.3 L66.9 303.8 L67.0 303.6 L67.0 303.3 L67.1 303.1 L67.2 302.6 L67.4 302.0 L67.5 301.7 L67.6 301.4 L67.7 301.1 L67.8 300.6 L68.0 299.9 L68.0 299.6 L68.1 299.1 L68.3 298.5 L68.3 298.1 L68.4 297.7 L68.5 297.2 L68.7 296.3 L68.8 295.9 L68.9 295.2 L69.0 294.6 L69.1 294.0 L69.3 293.0 L69.4 292.3 L69.6 291.3 L69.7 290.4 L69.9 289.3 L70.1 288.1 L70.3 287.0 L70.4 285.8 L70.6 284.6 L70.8 283.3 L71.0 282.0 L71.1 280.8 L71.3 279.4 L71.5 278.1 L71.7 276.7 L71.9 275.3 L71.9 275.0 L71.9 274.6 L72.0 274.0 L72.1 273.0 L72.3 271.5 L72.5 270.1 L72.7 268.6 L72.8 267.8 L72.9 266.7 L73.1 265.2 L73.2 263.8 L73.4 262.2 L73.5 261.3 L73.6 259.9 L73.7 259.5 L73.8 258.8 L73.9 257.8 L74.0 256.3 L74.2 254.7 L74.4 253.1 L74.6 251.4 L74.6 250.9 L74.7 250.1 L74.8 249.0 L75.0 247.3 L75.2 245.6 L75.3 244.7 L75.4 243.3 L75.6 241.6 L75.7 240.0 L75.9 238.3 L76.0 237.9 L76.0 237.2 L76.1 236.3 L76.3 235.1 L76.4 233.5 L76.6 232.4 L76.7 230.9 L76.9 229.3 L77.0 228.9 L77.0 228.3 L77.1 227.4 L77.3 226.1 L77.3 225.7 L77.4 225.1 L77.5 224.2 L77.7 222.9 L77.8 221.4 L78.0 220.0 L78.1 219.1 L78.3 217.7 L78.5 216.3 L78.6 215.5 L78.8 214.3 L78.9 213.0 L79.1 211.7 L79.3 210.5 L79.5 209.2 L79.6 208.0 L79.8 206.7 L80.0 205.5 L80.2 204.3 L80.3 203.2 L80.5 202.0 L80.7 200.9 L80.9 199.7 L81.0 198.6 L81.2 197.5 L81.4 196.4 L81.6 195.3 L81.7 194.3 L81.9 193.2 L82.1 192.2 L82.3 191.1 L82.4 190.1 L82.6 189.1 L82.8 188.1 L83.0 187.1 L83.1 186.2 L83.3 185.2 L83.5 184.2 L83.7 183.3 L83.8 182.3 L84.0 181.4 L84.2 180.5 L84.4 179.6 L84.5 178.7 L84.7 177.8 L84.9 176.9 L85.1 176.0 L85.2 175.2 L85.4 174.3 L85.6 173.4 L85.8 172.6 L85.9 171.8 L86.1 170.9 L86.3 170.1 L86.5 169.3 L86.7 168.5 L86.8 167.7 L87.0 166.9 L87.2 166.1 L87.4 165.3 L87.5 164.6 L87.7 163.8 L87.9 163.0 L88.1 162.3 L88.2 161.5 L88.4 160.8 L88.6 160.1 L88.8 159.3 L88.9 158.6 L89.1 157.9 L89.3 157.2 L89.5 156.5 L89.6 155.8 L89.8 155.1 L90.0 154.4 L90.2 153.7 L90.3 153.0 L90.5 152.4 L90.7 151.7 L90.9 151.0 L91.0 150.4 L91.2 149.7 L91.4 149.1 L91.6 148.4 L91.7 147.8 L91.9 147.2 L92.1 146.5 L92.3 145.9 L92.4 145.3 L92.6 144.7 L92.8 144.1 L93.0 143.5 L93.1 142.9 L93.3 142.3 L93.5 141.7 L93.7 141.1 L93.8 140.5 L94.0 140.0 L94.2 139.4 L94.4 138.8 L94.6 138.3 L94.7 137.7 L94.9 137.1 L95.1 136.6 L95.3 136.0 L95.4 135.5 L95.6 135.0 L95.8 134.4 L96.0 133.9 L96.1 133.4 L96.3 132.8 L96.5 132.3 L96.7 131.8 L96.8 131.3 L97.0 130.8 L97.2 130.3 L97.4 129.8 L97.5 129.3 L97.7 128.8 L97.9 128.3 L98.1 127.8 L98.2 127.3 L98.4 126.8 L98.6 126.4 L98.8 125.9 L98.9 125.4 L99.1 125.0 L99.3 124.5 L99.5 124.0 L99.6 123.6 L99.8 123.1 L100.0 122.7 L100.2 122.2 L100.3 121.8 L100.5 121.4 L100.7 120.9 L100.9 120.5 L101.0 120.1 L101.2 119.6 L101.4 119.2 L101.6 118.8 L101.7 118.4 L101.9 117.9 L102.1 117.5 L102.3 117.1 L102.5 116.7 L102.6 116.3 L102.8 115.9 L103.0 115.5 L103.2 115.1 L103.3 114.7 L103.5 114.3 L103.7 114.0 L103.9 113.6 L104.0 113.2 L104.2 112.8 L104.4 112.5 L104.6 112.1 L104.7 111.7 L104.9 111.3 L105.1 111.0 L105.3 110.6 L105.4 110.3 L105.6 109.9 L105.8 109.6 L106.0 109.2 L106.1 108.9 L106.3 108.5 L106.5 108.2 L106.7 107.8 L106.8 107.5 L107.0 107.2 L107.2 106.8 L107.4 106.5 L107.5 106.2 L107.7 105.9 L107.9 105.5 L108.1 105.2 L108.2 104.9 L108.4 104.6 L108.6 104.3 L108.8 104.0 L108.9 103.7 L109.1 103.4 L109.3 103.1 L109.5 102.8 L109.6 102.5 L109.8 102.2 L110.0 101.9 L110.2 101.6 L110.4 101.3 L110.5 101.0 L110.7 100.7 L110.9 100.5 L111.1 100.2 L111.2 99.9 L111.4 99.6 L111.6 99.4 L111.8 99.1 L111.9 98.8 L112.1 98.6 L112.3 98.3 L112.5 98.1 L112.6 97.8 L112.8 97.6 L113.0 97.3 L113.2 97.1 L113.3 96.8 L113.5 96.6 L113.7 96.3 L113.9 96.1 L114.0 95.8 L114.2 95.6 L114.4 95.4 L114.6 95.1 L114.7 94.9 L114.9 94.7 L115.1 94.5 L115.3 94.2 L115.4 94.0 L115.6 93.8 L115.8 93.6 L116.0 93.4 L116.1 93.2 L116.3 92.9 L116.5 92.7 L116.7 92.5 L116.8 92.3 L117.0 92.1 L117.2 91.9 L117.4 91.7 L117.5 91.5 L117.7 91.3 L117.9 91.2 L118.1 91.0 L118.3 90.8 L118.4 90.6 L118.6 90.4 L118.8 90.2 L119.0 90.0 L119.1 89.9 L119.3 89.7 L119.5 89.5 L119.7 89.4 L119.8 89.2 L120.0 89.0 L120.2 88.9 L120.4 88.7 L120.5 88.5 L120.7 88.4 L120.9 88.2 L121.1 88.1 L121.2 87.9 L121.4 87.8 L121.6 87.6 L121.8 87.5 L121.9 87.3 L122.1 87.2 L122.3 87.0 L122.5 86.9 L122.6 86.8 L122.8 86.6 L123.0 86.5 L123.2 86.4 L123.3 86.2 L123.5 86.1 L123.7 86.0 L123.9 85.9 L124.0 85.7 L124.2 85.6 L124.4 85.5 L124.6 85.4 L124.7 85.3 L124.9 85.2 L125.1 85.1 L125.3 84.9 L125.4 84.8 L125.6 84.7 L125.8 84.6 L126.0 84.5 L126.2 84.4 L126.3 84.3 L126.5 84.2 L126.7 84.2 L126.9 84.1 L127.0 84.0 L127.2 83.9 L127.4 83.8 L127.6 83.7 L127.7 83.6 L127.9 83.6 L128.1 83.5 L128.3 83.4 L128.4 83.3 L128.6 83.3 L128.8 83.2 L129.0 83.1 L129.1 83.1 L129.3 83.0 L129.5 82.9 L129.7 82.9 L129.8 82.8 L130.0 82.7 L130.2 82.7 L130.4 82.6 L130.5 82.6 L130.7 82.5 L130.9 82.5 L131.1 82.4 L131.2 82.4 L131.4 82.4 L131.6 82.3 L131.8 82.3 L131.9 82.2 L132.1 82.2 L132.3 82.2 L132.5 82.1 L132.6 82.1 L132.8 82.1 L133.0 82.0 L133.2 82.0 L133.3 82.0 L133.5 82.0 L133.7 82.0 L133.9 81.9 L134.1 81.9 L134.2 81.9 L134.4 81.9 L134.6 81.9 L134.8 81.9 L134.9 81.9 L135.1 81.9 L135.3 81.9 L135.5 81.9 L135.6 81.9 L135.8 81.9 L136.1 81.9 L136.5 81.9 L136.8 81.9 L137.2 81.9 L137.6 82.0 L137.9 82.0 L138.3 82.1 L138.7 82.1 L139.1 82.2 L139.5 82.3 L139.9 82.4 L140.4 82.5 L140.8 82.6 L141.3 82.7 L141.7 82.9 L142.2 83.0 L142.7 83.2 L143.3 83.4 L143.8 83.6 L144.4 83.8 L145.0 84.1 L145.7 84.4 L146.4 84.7 L147.1 85.0 L147.9 85.4 L148.8 85.9 L149.8 86.4 L150.9 87.0 L152.1 87.6 L153.6 88.5 L155.3 89.5 L157.1 90.5 L158.8 91.6 L160.6 92.6 L162.3 93.7 L164.1 94.8 L165.8 95.8 L167.6 96.9 L169.4 98.0 L171.1 99.1 L172.9 100.2 L174.6 101.2 L176.4 102.3 L178.1 103.4 L179.9 104.5 L181.6 105.5 L183.4 106.6 L185.2 107.7 L186.9 108.8 L188.7 109.8 L190.4 110.9 L192.2 112.0 L193.9 113.1 L195.7 114.1 L197.4 115.2 L199.2 116.3 L201.0 117.3 L202.7 118.4 L204.5 119.5 L206.2 120.5 L208.0 121.6 L209.7 122.7 L211.5 123.7 L213.2 124.8 L215.0 125.9 L216.8 126.9 L218.5 128.0 L220.3 129.0 L222.0 130.1 L223.8 131.2 L225.5 132.2 L227.3 133.3 L229.0 134.3 L230.8 135.4 L232.6 136.4 L234.3 137.5 L236.1 138.6 L237.8 139.6 L239.6 140.7 L241.3 141.7 L243.1 142.8 L244.8 143.8 L246.6 144.9 L248.4 145.9 L250.1 146.9 L251.9 148.0 L253.6 149.0 L255.4 150.1 L257.1 151.1 L258.9 152.2 L260.6 153.2 L262.4 154.3 L264.2 155.3 L265.9 156.3 L267.7 157.4 L269.4 158.4 L271.2 159.5 L272.9 160.5 L274.7 161.5 L276.4 162.6 L278.2 163.6 L280.0 164.6 L281.7 165.7 L283.5 166.7 L285.2 167.7 L287.0 168.8 L288.7 169.8 L290.5 170.8 L292.2 171.9 L294.0 172.9 L295.8 173.9 L297.5 174.9 L299.3 176.0 L301.0 177.0 L302.8 178.0 L304.5 179.0 L306.3 180.1 L308.0 181.1 L309.8 182.1 L311.6 183.1 L313.3 184.2 L315.1 185.2 L316.8 186.2 L318.6 187.2 L320.3 188.2 L322.1 189.2 L323.8 190.3 L325.6 191.3 L327.4 192.3 L329.1 193.3 L330.9 194.3 L332.6 195.3 L334.4 196.4 L336.1 197.4 L337.9 198.4 L339.6 199.4 L341.4 200.4 L343.2 201.4 L344.9 202.4 L346.7 203.4 L348.4 204.4 L350.2 205.4 L351.9 206.4 L353.7 207.4 L355.4 208.5 L357.2 209.5 L359.0 210.5 L360.7 211.5 L362.5 212.5 L364.2 213.5 L366.0 214.5 L367.7 215.5 L369.5 216.5 L371.2 217.5 L373.0 218.5 L374.8 219.5 L376.5 220.5 L378.3 221.5 L380.0 222.4 L381.8 223.4 L383.5 224.4 L385.3 225.4 L387.0 226.4 L388.8 227.4 L390.6 228.4 L392.3 229.4 L394.1 230.4 L395.8 231.4 L397.6 232.4 L399.3 233.4 L401.1 234.3 L402.8 235.3 L404.6 236.3 L406.4 237.3 L408.1 238.3 L409.9 239.3 L411.6 240.2 L413.4 241.2 L415.1 242.2 L416.9 243.2 L418.6 244.2 L420.4 245.2 L422.2 246.1 L423.9 247.1 L425.7 248.1 L427.4 249.1 L429.2 250.1 L430.9 251.0 L432.7 252.0 L434.4 253.0 L436.2 254.0 L438.0 254.9 L439.7 255.9 L441.5 256.9 L443.2 257.8 L445.0 258.8 L446.7 259.8 L448.5 260.8 L450.2 261.7 L452.0 262.7 L453.8 263.7 L455.5 264.6 L457.3 265.6 L459.0 266.6 L460.8 267.5 L462.5 268.5 L464.3 269.5 L466.0 270.4 L467.8 271.4 L469.6 272.4 L471.3 273.3 L473.1 274.3 L474.8 275.2 L476.6 276.2 L478.3 277.2 L480.1 278.1 L481.8 279.1 L483.6 280.0 L485.4 281.0 L487.1 282.0 L488.9 282.9 L490.6 283.9 L492.4 284.8 L494.1 285.8 L494.1 285.8 L494.2 285.8 L494.2 285.8 L494.2 285.8 L494.2 285.8 L494.3 285.8 L494.3 285.9 L494.3 285.9 L494.4 285.9 L494.4 285.9 L494.5 285.9 L494.5 285.9 L494.6 286.0 L494.7 286.0 L494.8 286.0 L494.9 286.0 L495.1 286.1 L495.3 286.1 L495.7 286.2 L496.2 286.3 L497.2 286.4 L498.3 286.5 L499.4 286.7 L500.5 286.8 L501.5 287.0 L502.6 287.1 L503.7 287.2 L504.8 287.4 L505.9 287.5 L507.0 287.6 L508.0 287.8 L509.1 287.9 L510.2 288.1 L511.3 288.2 L512.4 288.3 L513.5 288.5 L514.5 288.6 L515.6 288.8 L516.7 288.9 L517.8 289.0 L518.9 289.2 L520.0 289.3 L521.0 289.4 L522.1 289.6 L523.2 289.7 L524.3 289.9 L525.4 290.0 L526.4 290.1 L527.5 290.3 L528.6 290.4 L529.7 290.5 L530.8 290.7 L531.9 290.8 L532.9 291.0 L534.0 291.1 L535.1 291.2 L536.2 291.4 L537.3 291.5 L538.3 291.6 L539.4 291.8 L540.5 291.9 L541.6 292.1 L542.7 292.2 L543.7 292.3 L544.8 292.5 L545.9 292.6 L547.0 292.7 L548.0 292.9 L549.1 293.0 L550.2 293.2 L551.3 293.3 L552.4 293.4 L553.4 293.6 L554.5 293.7 L555.6 293.8 L556.7 294.0 L557.8 294.1 L558.8 294.3 L559.9 294.4 L561.0 294.5 L562.1 294.7 L563.1 294.8 L564.2 294.9 L565.3 295.1 L567.1 295.3 L568.1 295.4 L569.2 295.6 L570.3 295.7 L571.4 295.9 L572.4 296.0 L573.5 296.1 L574.6 296.3 L575.7 296.4 L576.8 296.5 L577.8 296.7 L578.9 296.8 L580.0 296.9 L581.1 297.1 L582.1 297.2 L583.2 297.4 L584.3 297.5 L585.4 297.6 L586.4 297.8 L587.5 297.9 L588.6 298.0 L589.7 298.2 L590.7 298.3 L591.8 298.4 L592.9 298.6 L594.0 298.7 L595.0 298.9 L596.1 299.0 L597.2 299.1 L598.3 299.3 L599.3 299.4 L600.4 299.5 L601.5 299.7 L602.6 299.8 L603.6 299.9 L604.7 300.1 L605.8 300.2 L606.9 300.4 L607.9 300.5 L609.0 300.6 L610.1 300.8 L611.2 300.9 L612.2 301.0 L613.3 301.2 L614.4 301.3 L615.5 301.4 L616.5 301.6 L617.6 301.7 L618.7 301.9 L619.7 302.0 L620.8 302.1 L621.9 302.3 L623.0 302.4 L624.0 302.5 L625.1 302.7 L626.2 302.8 L627.3 302.9 L628.3 303.1 L629.4 303.2 L630.5 303.3 L631.5 303.5 L632.6 303.6 L633.7 303.8 L634.8 303.9 L635.8 304.0 L636.9 304.2 L638.0 304.3 L639.0 304.4 L640.1 304.6 L641.2 304.7 L642.3 304.8 L643.3 305.0 L644.4 305.1 L645.5 305.2 L646.5 305.4 L647.6 305.5 L648.7 305.6 L649.8 305.8 L650.8 305.9 L651.9 306.1 L653.0 306.2 L654.0 306.3 L655.1 306.5 L656.2 306.6 L657.2 306.7 L658.3 306.9 L659.4 307.0 L660.4 307.1 L661.5 307.3 L662.6 307.4 L663.7 307.5 L664.7 307.7 L665.8 307.8 L667.3 308.0"/>
</svg>
