<svg xmlns="http://www.w3.org/2000/svg" viewBox="0 0 620 620" width="620" height="620" role="img" aria-label="Maple 10K: 200 simulated landings">
<style>
.bg{fill:#fcfcfb}.grid{stroke:#e4e3de;stroke-width:1}.axis{stroke:#b8b7ae;stroke-width:1}.t1{fill:#1a1a19;font:600 15px system-ui,sans-serif}.t2{fill:#5f5e57;font:12px system-ui,sans-serif}.p0{fill:#2a78d6;fill-opacity:.45}.p1{fill:#d9480f;fill-opacity:.45}.e0{fill:none;stroke:#2a78d6;stroke-width:2}.e1{fill:none;stroke:#d9480f;stroke-width:2;stroke-dasharray:5 3}.pad{fill:#1a1a19}
@media (prefers-color-scheme: dark){.bg{fill:#1a1a19}.grid{stroke:#34332f}.axis{stroke:#5f5e57}.t1{fill:#ffffff}.t2{fill:#c3c2b7}.p0{fill:#3987e5}.p1{fill:#f08c4f}.e0{stroke:#3987e5}.e1{stroke:#f08c4f}.pad{fill:#ffffff}}
</style>
<rect class="bg" width="620" height="620"/>
<text class="t1" x="64" y="26">Maple 10K: 200 simulated landings</text>
<line class="grid" x1="64.0" x2="64.0" y1="56" y2="568.0"/>
<line class="grid" x1="64" x2="576.0" y1="568.0" y2="568.0"/>
<text class="t2" x="64.0" y="586.0" text-anchor="middle">-800</text>
<text class="t2" x="56" y="572.0" text-anchor="end">-600</text>
<line class="grid" x1="137.1" x2="137.1" y1="56" y2="568.0"/>
<line class="grid" x1="64" x2="576.0" y1="494.9" y2="494.9"/>
<text class="t2" x="137.1" y="586.0" text-anchor="middle">-600</text>
<text class="t2" x="56" y="498.9" text-anchor="end">-400</text>
<line class="grid" x1="210.3" x2="210.3" y1="56" y2="568.0"/>
<line class="grid" x1="64" x2="576.0" y1="421.7" y2="421.7"/>
<text class="t2" x="210.3" y="586.0" text-anchor="middle">-400</text>
<text class="t2" x="56" y="425.7" text-anchor="end">-200</text>
<line class="grid" x1="283.4" x2="283.4" y1="56" y2="568.0"/>
<line class="grid" x1="64" x2="576.0" y1="348.6" y2="348.6"/>
<text class="t2" x="283.4" y="586.0" text-anchor="middle">-200</text>
<text class="t2" x="56" y="352.6" text-anchor="end">0</text>
<line class="grid" x1="356.6" x2="356.6" y1="56" y2="568.0"/>
<line class="grid" x1="64" x2="576.0" y1="275.4" y2="275.4"/>
<text class="t2" x="356.6" y="586.0" text-anchor="middle">0</text>
<text class="t2" x="56" y="279.4" text-anchor="end">200</text>
<line class="grid" x1="429.7" x2="429.7" y1="56" y2="568.0"/>
<line class="grid" x1="64" x2="576.0" y1="202.3" y2="202.3"/>
<text class="t2" x="429.7" y="586.0" text-anchor="middle">200</text>
<text class="t2" x="56" y="206.3" text-anchor="end">400</text>
<line class="grid" x1="502.9" x2="502.9" y1="56" y2="568.0"/>
<line class="grid" x1="64" x2="576.0" y1="129.1" y2="129.1"/>
<text class="t2" x="502.9" y="586.0" text-anchor="middle">400</text>
<text class="t2" x="56" y="133.1" text-anchor="end">600</text>
<line class="grid" x1="576.0" x2="576.0" y1="56" y2="568.0"/>
<line class="grid" x1="64" x2="576.0" y1="56.0" y2="56.0"/>
<text class="t2" x="576.0" y="586.0" text-anchor="middle">600</text>
<text class="t2" x="56" y="60.0" text-anchor="end">800</text>
<text class="t2" x="320.0" y="608" text-anchor="middle">East of the pad (m)</text>
<text class="t2" transform="translate(16 312.0) rotate(-90)" text-anchor="middle">North of the pad (m)</text>
<circle class="p0" cx="410.6" cy="330.5" r="3"/>
<circle class="p0" cx="266.2" cy="350.0" r="3"/>
<circle class="p0" cx="248.9" cy="369.9" r="3"/>
<circle class="p0" cx="332.7" cy="309.8" r="3"/>
<circle class="p0" cx="271.4" cy="432.2" r="3"/>
<circle class="p0" cx="372.4" cy="356.8" r="3"/>
<circle class="p0" cx="99.2" cy="323.3" r="3"/>
<circle class="p0" cx="375.8" cy="350.8" r="3"/>
<circle class="p0" cx="376.6" cy="361.3" r="3"/>
<circle class="p0" cx="449.0" cy="344.3" r="3"/>
<circle class="p0" cx="318.0" cy="356.8" r="3"/>
<circle class="p0" cx="334.3" cy="343.9" r="3"/>
<circle class="p0" cx="218.2" cy="339.4" r="3"/>
<circle class="p0" cx="300.4" cy="344.5" r="3"/>
<circle class="p0" cx="334.5" cy="345.4" r="3"/>
<circle class="p0" cx="355.1" cy="348.6" r="3"/>
<circle class="p0" cx="356.1" cy="275.5" r="3"/>
<circle class="p0" cx="335.8" cy="336.4" r="3"/>
<circle class="p0" cx="254.0" cy="335.0" r="3"/>
<circle class="p0" cx="285.0" cy="388.8" r="3"/>
<circle class="p0" cx="309.2" cy="341.0" r="3"/>
<circle class="p0" cx="258.4" cy="355.3" r="3"/>
<circle class="p0" cx="336.9" cy="388.6" r="3"/>
<circle class="p0" cx="312.8" cy="221.4" r="3"/>
<circle class="p0" cx="251.9" cy="277.9" r="3"/>
<circle class="p0" cx="269.2" cy="361.0" r="3"/>
<circle class="p0" cx="306.8" cy="362.5" r="3"/>
<circle class="p0" cx="242.1" cy="390.5" r="3"/>
<circle class="p0" cx="265.1" cy="317.0" r="3"/>
<circle class="p0" cx="300.7" cy="321.6" r="3"/>
<circle class="p0" cx="386.4" cy="346.1" r="3"/>
<circle class="p0" cx="189.7" cy="373.6" r="3"/>
<circle class="p0" cx="357.6" cy="346.4" r="3"/>
<circle class="p0" cx="262.6" cy="350.1" r="3"/>
<circle class="p0" cx="392.9" cy="355.1" r="3"/>
<circle class="p0" cx="268.5" cy="346.8" r="3"/>
<circle class="p0" cx="194.8" cy="346.0" r="3"/>
<circle class="p0" cx="254.0" cy="441.2" r="3"/>
<circle class="p0" cx="289.3" cy="359.6" r="3"/>
<circle class="p0" cx="368.8" cy="340.9" r="3"/>
<circle class="p0" cx="351.4" cy="347.8" r="3"/>
<circle class="p0" cx="337.3" cy="370.5" r="3"/>
<circle class="p0" cx="326.5" cy="338.5" r="3"/>
<circle class="p0" cx="351.4" cy="344.5" r="3"/>
<circle class="p0" cx="315.3" cy="330.2" r="3"/>
<circle class="p0" cx="297.6" cy="413.9" r="3"/>
<circle class="p0" cx="351.9" cy="350.5" r="3"/>
<circle class="p0" cx="326.1" cy="372.4" r="3"/>
<circle class="p0" cx="344.0" cy="355.4" r="3"/>
<circle class="p0" cx="245.9" cy="339.2" r="3"/>
<circle class="p0" cx="521.8" cy="364.7" r="3"/>
<circle class="p0" cx="267.5" cy="369.7" r="3"/>
<circle class="p0" cx="275.9" cy="319.3" r="3"/>
<circle class="p0" cx="365.6" cy="337.7" r="3"/>
<circle class="p0" cx="302.2" cy="357.1" r="3"/>
<circle class="p0" cx="424.7" cy="340.1" r="3"/>
<circle class="p0" cx="318.5" cy="351.1" r="3"/>
<circle class="p0" cx="342.1" cy="350.3" r="3"/>
<circle class="p0" cx="332.3" cy="351.0" r="3"/>
<circle class="p0" cx="291.9" cy="433.4" r="3"/>
<circle class="p0" cx="351.7" cy="352.0" r="3"/>
<circle class="p0" cx="215.8" cy="350.6" r="3"/>
<circle class="p0" cx="194.7" cy="426.1" r="3"/>
<circle class="p0" cx="374.4" cy="359.9" r="3"/>
<circle class="p0" cx="295.5" cy="345.5" r="3"/>
<circle class="p0" cx="247.6" cy="269.5" r="3"/>
<circle class="p0" cx="300.0" cy="498.1" r="3"/>
<circle class="p0" cx="317.1" cy="346.9" r="3"/>
<circle class="p0" cx="228.3" cy="342.7" r="3"/>
<circle class="p0" cx="260.2" cy="354.6" r="3"/>
<circle class="p0" cx="263.4" cy="349.9" r="3"/>
<circle class="p0" cx="314.7" cy="313.4" r="3"/>
<circle class="p0" cx="285.7" cy="148.9" r="3"/>
<circle class="p0" cx="422.5" cy="351.8" r="3"/>
<circle class="p0" cx="266.4" cy="305.6" r="3"/>
<circle class="p0" cx="258.0" cy="325.6" r="3"/>
<circle class="p0" cx="385.2" cy="331.8" r="3"/>
<circle class="p0" cx="249.0" cy="265.9" r="3"/>
<circle class="p0" cx="291.5" cy="348.9" r="3"/>
<circle class="p0" cx="345.5" cy="339.5" r="3"/>
<circle class="p0" cx="379.6" cy="353.7" r="3"/>
<circle class="p0" cx="320.4" cy="399.9" r="3"/>
<circle class="p0" cx="221.5" cy="400.0" r="3"/>
<circle class="p0" cx="364.7" cy="345.2" r="3"/>
<circle class="p0" cx="274.3" cy="393.3" r="3"/>
<circle class="p0" cx="327.2" cy="364.9" r="3"/>
<circle class="p0" cx="367.4" cy="350.0" r="3"/>
<circle class="p0" cx="230.2" cy="377.5" r="3"/>
<circle class="p0" cx="149.8" cy="357.8" r="3"/>
<circle class="p0" cx="277.7" cy="384.0" r="3"/>
<circle class="p0" cx="166.8" cy="365.4" r="3"/>
<circle class="p0" cx="275.2" cy="287.6" r="3"/>
<circle class="p0" cx="315.5" cy="326.2" r="3"/>
<circle class="p0" cx="254.3" cy="313.4" r="3"/>
<circle class="p0" cx="328.4" cy="385.5" r="3"/>
<circle class="p0" cx="321.7" cy="365.3" r="3"/>
<circle class="p0" cx="244.6" cy="311.0" r="3"/>
<circle class="p0" cx="253.2" cy="229.6" r="3"/>
<circle class="p0" cx="294.2" cy="361.6" r="3"/>
<circle class="p0" cx="289.8" cy="381.6" r="3"/>
<circle class="p0" cx="150.4" cy="301.5" r="3"/>
<circle class="p0" cx="343.0" cy="358.5" r="3"/>
<circle class="p0" cx="312.9" cy="320.1" r="3"/>
<circle class="p0" cx="366.4" cy="342.7" r="3"/>
<circle class="p0" cx="296.2" cy="363.4" r="3"/>
<circle class="p0" cx="292.9" cy="369.0" r="3"/>
<circle class="p0" cx="262.1" cy="389.5" r="3"/>
<circle class="p0" cx="285.6" cy="328.8" r="3"/>
<circle class="p0" cx="385.7" cy="344.1" r="3"/>
<circle class="p0" cx="273.9" cy="246.1" r="3"/>
<circle class="p0" cx="336.2" cy="416.9" r="3"/>
<circle class="p0" cx="356.2" cy="348.8" r="3"/>
<circle class="p0" cx="300.2" cy="359.4" r="3"/>
<circle class="p0" cx="274.3" cy="353.0" r="3"/>
<circle class="p0" cx="331.2" cy="358.5" r="3"/>
<circle class="p0" cx="306.7" cy="360.7" r="3"/>
<circle class="p0" cx="207.4" cy="276.5" r="3"/>
<circle class="p0" cx="402.2" cy="349.5" r="3"/>
<circle class="p0" cx="259.7" cy="345.1" r="3"/>
<circle class="p0" cx="245.3" cy="343.3" r="3"/>
<circle class="p0" cx="298.8" cy="327.3" r="3"/>
<circle class="p0" cx="219.9" cy="373.3" r="3"/>
<circle class="p0" cx="271.5" cy="394.9" r="3"/>
<circle class="p0" cx="248.8" cy="386.6" r="3"/>
<circle class="p0" cx="309.0" cy="419.9" r="3"/>
<circle class="p0" cx="224.3" cy="355.5" r="3"/>
<circle class="p0" cx="267.2" cy="347.7" r="3"/>
<circle class="p0" cx="333.2" cy="327.8" r="3"/>
<circle class="p0" cx="330.6" cy="346.7" r="3"/>
<circle class="p0" cx="349.8" cy="349.3" r="3"/>
<circle class="p0" cx="437.7" cy="335.2" r="3"/>
<circle class="p0" cx="208.0" cy="303.2" r="3"/>
<circle class="p0" cx="317.2" cy="358.8" r="3"/>
<circle class="p0" cx="352.6" cy="349.1" r="3"/>
<circle class="p0" cx="359.2" cy="345.1" r="3"/>
<circle class="p0" cx="236.4" cy="302.1" r="3"/>
<circle class="p0" cx="327.3" cy="327.4" r="3"/>
<circle class="p0" cx="306.2" cy="366.8" r="3"/>
<circle class="p0" cx="331.2" cy="349.7" r="3"/>
<circle class="p0" cx="331.1" cy="367.1" r="3"/>
<circle class="p0" cx="273.5" cy="343.7" r="3"/>
<circle class="p0" cx="438.8" cy="319.7" r="3"/>
<circle class="p0" cx="199.0" cy="379.4" r="3"/>
<circle class="p0" cx="278.1" cy="395.2" r="3"/>
<circle class="p0" cx="195.4" cy="371.7" r="3"/>
<circle class="p0" cx="260.5" cy="382.5" r="3"/>
<circle class="p0" cx="251.0" cy="372.7" r="3"/>
<circle class="p0" cx="332.9" cy="394.8" r="3"/>
<circle class="p0" cx="369.8" cy="346.9" r="3"/>
<circle class="p0" cx="272.4" cy="300.1" r="3"/>
<circle class="p0" cx="277.3" cy="289.0" r="3"/>
<circle class="p0" cx="237.7" cy="481.1" r="3"/>
<circle class="p0" cx="218.5" cy="328.2" r="3"/>
<circle class="p0" cx="242.8" cy="492.5" r="3"/>
<circle class="p0" cx="299.9" cy="372.5" r="3"/>
<circle class="p0" cx="384.8" cy="358.6" r="3"/>
<circle class="p0" cx="324.7" cy="346.7" r="3"/>
<circle class="p0" cx="324.9" cy="341.2" r="3"/>
<circle class="p0" cx="322.3" cy="357.7" r="3"/>
<circle class="p0" cx="302.9" cy="391.9" r="3"/>
<circle class="p0" cx="240.8" cy="299.7" r="3"/>
<circle class="p0" cx="104.3" cy="401.9" r="3"/>
<circle class="p0" cx="397.3" cy="346.8" r="3"/>
<circle class="p0" cx="193.6" cy="439.5" r="3"/>
<circle class="p0" cx="329.8" cy="345.9" r="3"/>
<circle class="p0" cx="215.4" cy="361.2" r="3"/>
<circle class="p0" cx="377.8" cy="346.1" r="3"/>
<circle class="p0" cx="288.5" cy="296.7" r="3"/>
<circle class="p0" cx="364.4" cy="353.1" r="3"/>
<circle class="p0" cx="324.5" cy="348.0" r="3"/>
<circle class="p0" cx="301.9" cy="382.6" r="3"/>
<circle class="p0" cx="257.4" cy="276.3" r="3"/>
<circle class="p0" cx="269.7" cy="334.4" r="3"/>
<circle class="p0" cx="291.0" cy="390.6" r="3"/>
<circle class="p0" cx="373.0" cy="352.7" r="3"/>
<circle class="p0" cx="196.4" cy="413.6" r="3"/>
<circle class="p0" cx="234.2" cy="319.8" r="3"/>
<circle class="p0" cx="276.3" cy="430.9" r="3"/>
<circle class="p0" cx="469.1" cy="345.1" r="3"/>
<circle class="p0" cx="303.0" cy="372.9" r="3"/>
<circle class="p0" cx="306.7" cy="351.3" r="3"/>
<circle class="p0" cx="308.9" cy="245.2" r="3"/>
<circle class="p0" cx="440.0" cy="310.1" r="3"/>
<circle class="p0" cx="247.0" cy="369.2" r="3"/>
<circle class="p0" cx="365.3" cy="348.4" r="3"/>
<circle class="p0" cx="347.6" cy="347.0" r="3"/>
<circle class="p0" cx="382.4" cy="346.4" r="3"/>
<circle class="p0" cx="273.2" cy="384.1" r="3"/>
<circle class="p0" cx="231.5" cy="309.3" r="3"/>
<circle class="p0" cx="174.2" cy="489.5" r="3"/>
<circle class="p0" cx="272.8" cy="353.7" r="3"/>
<circle class="p0" cx="400.7" cy="337.3" r="3"/>
<circle class="p0" cx="191.8" cy="305.9" r="3"/>
<circle class="p0" cx="270.4" cy="381.2" r="3"/>
<circle class="p0" cx="299.6" cy="321.0" r="3"/>
<circle class="p0" cx="340.4" cy="357.6" r="3"/>
<circle class="p0" cx="417.3" cy="365.3" r="3"/>
<circle class="p0" cx="459.0" cy="382.3" r="3"/>
<circle class="p0" cx="304.3" cy="260.9" r="3"/>
<circle class="p0" cx="251.7" cy="271.6" r="3"/>
<ellipse class="e0" cx="301.4" cy="350.4" rx="133.1" ry="86.7" transform="rotate(-4.50 301.4 350.4)"/>
<circle class="p0" cx="68" cy="42" r="4"/><text class="t2" x="76" y="46">Sustainer (200, 2-sigma ellipse)</text>
<path class="pad" d="M356.6 342.6 l6 10 h-12 z"/>
<text class="t2" x="365.6" y="352.6">pad</text>
</svg>
