<svg xmlns="http://www.w3.org/2000/svg" viewBox="0 0 620 620" width="620" height="620" role="img" aria-label="Maple 10K: 200 simulated landings">
<style>
.bg{fill:#fcfcfb}.grid{stroke:#e4e3de;stroke-width:1}.axis{stroke:#b8b7ae;stroke-width:1}.t1{fill:#1a1a19;font:600 15px system-ui,sans-serif}.t2{fill:#5f5e57;font:12px system-ui,sans-serif}.p0{fill:#2a78d6;fill-opacity:.45}.p1{fill:#d9480f;fill-opacity:.45}.e0{fill:none;stroke:#2a78d6;stroke-width:2}.e1{fill:none;stroke:#d9480f;stroke-width:2;stroke-dasharray:5 3}.pad{fill:#1a1a19}
@media (prefers-color-scheme: dark){.bg{fill:#1a1a19}.grid{stroke:#34332f}.axis{stroke:#5f5e57}.t1{fill:#ffffff}.t2{fill:#c3c2b7}.p0{fill:#3987e5}.p1{fill:#f08c4f}.e0{stroke:#3987e5}.e1{stroke:#f08c4f}.pad{fill:#ffffff}}
</style>
<rect class="bg" width="620" height="620"/>
<text class="t1" x="64" y="26">Maple 10K: 200 simulated landings</text>
<line class="grid" x1="64.0" x2="64.0" y1="56" y2="568.0"/>
<line class="grid" x1="64" x2="576.0" y1="568.0" y2="568.0"/>
<text class="t2" x="64.0" y="586.0" text-anchor="middle">-800</text>
<text class="t2" x="56" y="572.0" text-anchor="end">-600</text>
<line class="grid" x1="137.1" x2="137.1" y1="56" y2="568.0"/>
<line class="grid" x1="64" x2="576.0" y1="494.9" y2="494.9"/>
<text class="t2" x="137.1" y="586.0" text-anchor="middle">-600</text>
<text class="t2" x="56" y="498.9" text-anchor="end">-400</text>
<line class="grid" x1="210.3" x2="210.3" y1="56" y2="568.0"/>
<line class="grid" x1="64" x2="576.0" y1="421.7" y2="421.7"/>
<text class="t2" x="210.3" y="586.0" text-anchor="middle">-400</text>
<text class="t2" x="56" y="425.7" text-anchor="end">-200</text>
<line class="grid" x1="283.4" x2="283.4" y1="56" y2="568.0"/>
<line class="grid" x1="64" x2="576.0" y1="348.6" y2="348.6"/>
<text class="t2" x="283.4" y="586.0" text-anchor="middle">-200</text>
<text class="t2" x="56" y="352.6" text-anchor="end">0</text>
<line class="grid" x1="356.6" x2="356.6" y1="56" y2="568.0"/>
<line class="grid" x1="64" x2="576.0" y1="275.4" y2="275.4"/>
<text class="t2" x="356.6" y="586.0" text-anchor="middle">0</text>
<text class="t2" x="56" y="279.4" text-anchor="end">200</text>
<line class="grid" x1="429.7" x2="429.7" y1="56" y2="568.0"/>
<line class="grid" x1="64" x2="576.0" y1="202.3" y2="202.3"/>
<text class="t2" x="429.7" y="586.0" text-anchor="middle">200</text>
<text class="t2" x="56" y="206.3" text-anchor="end">400</text>
<line class="grid" x1="502.9" x2="502.9" y1="56" y2="568.0"/>
<line class="grid" x1="64" x2="576.0" y1="129.1" y2="129.1"/>
<text class="t2" x="502.9" y="586.0" text-anchor="middle">400</text>
<text class="t2" x="56" y="133.1" text-anchor="end">600</text>
<line class="grid" x1="576.0" x2="576.0" y1="56" y2="568.0"/>
<line class="grid" x1="64" x2="576.0" y1="56.0" y2="56.0"/>
<text class="t2" x="576.0" y="586.0" text-anchor="middle">600</text>
<text class="t2" x="56" y="60.0" text-anchor="end">800</text>
<text class="t2" x="320.0" y="608" text-anchor="middle">East of the pad (m)</text>
<text class="t2" transform="translate(16 312.0) rotate(-90)" text-anchor="middle">North of the pad (m)</text>
<circle class="p0" cx="410.0" cy="330.7" r="3"/>
<circle class="p0" cx="267.6" cy="350.1" r="3"/>
<circle class="p0" cx="249.2" cy="369.9" r="3"/>
<circle class="p0" cx="332.6" cy="309.6" r="3"/>
<circle class="p0" cx="270.2" cy="433.5" r="3"/>
<circle class="p0" cx="372.4" cy="356.8" r="3"/>
<circle class="p0" cx="99.7" cy="323.3" r="3"/>
<circle class="p0" cx="378.2" cy="351.1" r="3"/>
<circle class="p0" cx="376.5" cy="361.3" r="3"/>
<circle class="p0" cx="448.8" cy="344.3" r="3"/>
<circle class="p0" cx="315.4" cy="357.4" r="3"/>
<circle class="p0" cx="333.7" cy="344.2" r="3"/>
<circle class="p0" cx="218.1" cy="339.4" r="3"/>
<circle class="p0" cx="299.0" cy="344.4" r="3"/>
<circle class="p0" cx="334.3" cy="345.4" r="3"/>
<circle class="p0" cx="356.6" cy="349.3" r="3"/>
<circle class="p0" cx="356.1" cy="276.2" r="3"/>
<circle class="p0" cx="334.5" cy="335.6" r="3"/>
<circle class="p0" cx="253.0" cy="334.8" r="3"/>
<circle class="p0" cx="285.0" cy="388.8" r="3"/>
<circle class="p0" cx="308.7" cy="340.9" r="3"/>
<circle class="p0" cx="259.2" cy="355.2" r="3"/>
<circle class="p0" cx="337.1" cy="388.1" r="3"/>
<circle class="p0" cx="313.6" cy="224.1" r="3"/>
<circle class="p0" cx="252.2" cy="278.0" r="3"/>
<circle class="p0" cx="268.5" cy="361.1" r="3"/>
<circle class="p0" cx="306.6" cy="362.5" r="3"/>
<circle class="p0" cx="242.0" cy="390.6" r="3"/>
<circle class="p0" cx="265.1" cy="317.0" r="3"/>
<circle class="p0" cx="301.6" cy="322.0" r="3"/>
<circle class="p0" cx="389.6" cy="345.8" r="3"/>
<circle class="p0" cx="189.0" cy="373.8" r="3"/>
<circle class="p0" cx="356.9" cy="347.1" r="3"/>
<circle class="p0" cx="262.7" cy="350.1" r="3"/>
<circle class="p0" cx="393.5" cy="355.2" r="3"/>
<circle class="p0" cx="267.4" cy="346.8" r="3"/>
<circle class="p0" cx="194.8" cy="346.0" r="3"/>
<circle class="p0" cx="253.0" cy="442.0" r="3"/>
<circle class="p0" cx="288.7" cy="359.7" r="3"/>
<circle class="p0" cx="371.9" cy="339.1" r="3"/>
<circle class="p0" cx="351.6" cy="347.9" r="3"/>
<circle class="p0" cx="336.4" cy="371.6" r="3"/>
<circle class="p0" cx="323.5" cy="337.4" r="3"/>
<circle class="p0" cx="351.6" cy="344.7" r="3"/>
<circle class="p0" cx="318.5" cy="331.7" r="3"/>
<circle class="p0" cx="298.4" cy="413.0" r="3"/>
<circle class="p0" cx="348.9" cy="352.1" r="3"/>
<circle class="p0" cx="326.0" cy="372.5" r="3"/>
<circle class="p0" cx="345.8" cy="354.4" r="3"/>
<circle class="p0" cx="244.5" cy="339.1" r="3"/>
<circle class="p0" cx="523.0" cy="364.8" r="3"/>
<circle class="p0" cx="267.6" cy="369.7" r="3"/>
<circle class="p0" cx="274.7" cy="318.8" r="3"/>
<circle class="p0" cx="365.9" cy="337.3" r="3"/>
<circle class="p0" cx="302.2" cy="357.1" r="3"/>
<circle class="p0" cx="424.9" cy="340.1" r="3"/>
<circle class="p0" cx="320.3" cy="350.9" r="3"/>
<circle class="p0" cx="342.4" cy="350.2" r="3"/>
<circle class="p0" cx="331.3" cy="351.1" r="3"/>
<circle class="p0" cx="291.8" cy="433.4" r="3"/>
<circle class="p0" cx="350.2" cy="353.2" r="3"/>
<circle class="p0" cx="215.4" cy="350.6" r="3"/>
<circle class="p0" cx="193.1" cy="426.7" r="3"/>
<circle class="p0" cx="374.1" cy="359.8" r="3"/>
<circle class="p0" cx="295.6" cy="345.5" r="3"/>
<circle class="p0" cx="246.5" cy="268.7" r="3"/>
<circle class="p0" cx="299.8" cy="498.4" r="3"/>
<circle class="p0" cx="316.7" cy="346.8" r="3"/>
<circle class="p0" cx="228.6" cy="342.7" r="3"/>
<circle class="p0" cx="259.2" cy="354.7" r="3"/>
<circle class="p0" cx="263.3" cy="349.9" r="3"/>
<circle class="p0" cx="316.2" cy="314.7" r="3"/>
<circle class="p0" cx="285.8" cy="149.1" r="3"/>
<circle class="p0" cx="426.8" cy="352.0" r="3"/>
<circle class="p0" cx="267.0" cy="306.0" r="3"/>
<circle class="p0" cx="258.1" cy="325.6" r="3"/>
<circle class="p0" cx="385.9" cy="331.4" r="3"/>
<circle class="p0" cx="250.5" cy="267.1" r="3"/>
<circle class="p0" cx="290.2" cy="348.9" r="3"/>
<circle class="p0" cx="346.4" cy="340.4" r="3"/>
<circle class="p0" cx="379.5" cy="353.7" r="3"/>
<circle class="p0" cx="320.3" cy="400.0" r="3"/>
<circle class="p0" cx="221.8" cy="399.9" r="3"/>
<circle class="p0" cx="362.5" cy="346.0" r="3"/>
<circle class="p0" cx="273.2" cy="393.8" r="3"/>
<circle class="p0" cx="328.5" cy="364.1" r="3"/>
<circle class="p0" cx="370.3" cy="350.2" r="3"/>
<circle class="p0" cx="230.0" cy="377.6" r="3"/>
<circle class="p0" cx="149.7" cy="357.8" r="3"/>
<circle class="p0" cx="277.3" cy="384.1" r="3"/>
<circle class="p0" cx="166.5" cy="365.5" r="3"/>
<circle class="p0" cx="275.5" cy="287.8" r="3"/>
<circle class="p0" cx="316.1" cy="326.5" r="3"/>
<circle class="p0" cx="254.3" cy="313.4" r="3"/>
<circle class="p0" cx="327.6" cy="386.6" r="3"/>
<circle class="p0" cx="321.1" cy="365.6" r="3"/>
<circle class="p0" cx="245.2" cy="311.2" r="3"/>
<circle class="p0" cx="253.4" cy="229.8" r="3"/>
<circle class="p0" cx="293.3" cy="361.8" r="3"/>
<circle class="p0" cx="289.9" cy="381.6" r="3"/>
<circle class="p0" cx="150.5" cy="301.5" r="3"/>
<circle class="p0" cx="343.6" cy="358.0" r="3"/>
<circle class="p0" cx="314.7" cy="321.4" r="3"/>
<circle class="p0" cx="366.4" cy="342.7" r="3"/>
<circle class="p0" cx="296.2" cy="363.4" r="3"/>
<circle class="p0" cx="292.5" cy="369.1" r="3"/>
<circle class="p0" cx="262.5" cy="389.4" r="3"/>
<circle class="p0" cx="286.4" cy="329.0" r="3"/>
<circle class="p0" cx="386.4" cy="344.0" r="3"/>
<circle class="p0" cx="274.0" cy="246.2" r="3"/>
<circle class="p0" cx="336.3" cy="416.7" r="3"/>
<circle class="p0" cx="358.1" cy="348.9" r="3"/>
<circle class="p0" cx="300.2" cy="359.4" r="3"/>
<circle class="p0" cx="274.2" cy="353.1" r="3"/>
<circle class="p0" cx="332.9" cy="357.8" r="3"/>
<circle class="p0" cx="306.7" cy="360.7" r="3"/>
<circle class="p0" cx="205.8" cy="275.8" r="3"/>
<circle class="p0" cx="401.0" cy="349.5" r="3"/>
<circle class="p0" cx="259.9" cy="345.1" r="3"/>
<circle class="p0" cx="245.2" cy="343.3" r="3"/>
<circle class="p0" cx="299.1" cy="327.4" r="3"/>
<circle class="p0" cx="221.3" cy="372.9" r="3"/>
<circle class="p0" cx="270.5" cy="395.4" r="3"/>
<circle class="p0" cx="248.8" cy="386.6" r="3"/>
<circle class="p0" cx="308.8" cy="420.3" r="3"/>
<circle class="p0" cx="224.2" cy="355.6" r="3"/>
<circle class="p0" cx="268.0" cy="347.8" r="3"/>
<circle class="p0" cx="334.2" cy="328.7" r="3"/>
<circle class="p0" cx="330.0" cy="346.6" r="3"/>
<circle class="p0" cx="349.2" cy="349.4" r="3"/>
<circle class="p0" cx="437.7" cy="335.2" r="3"/>
<circle class="p0" cx="208.7" cy="303.4" r="3"/>
<circle class="p0" cx="316.9" cy="358.9" r="3"/>
<circle class="p0" cx="352.6" cy="349.1" r="3"/>
<circle class="p0" cx="359.2" cy="345.1" r="3"/>
<circle class="p0" cx="236.7" cy="302.2" r="3"/>
<circle class="p0" cx="327.5" cy="327.5" r="3"/>
<circle class="p0" cx="305.8" cy="366.9" r="3"/>
<circle class="p0" cx="330.7" cy="349.7" r="3"/>
<circle class="p0" cx="331.2" cy="367.0" r="3"/>
<circle class="p0" cx="273.9" cy="343.7" r="3"/>
<circle class="p0" cx="439.7" cy="319.4" r="3"/>
<circle class="p0" cx="199.9" cy="379.2" r="3"/>
<circle class="p0" cx="277.8" cy="395.4" r="3"/>
<circle class="p0" cx="195.7" cy="371.6" r="3"/>
<circle class="p0" cx="260.7" cy="382.5" r="3"/>
<circle class="p0" cx="246.8" cy="373.7" r="3"/>
<circle class="p0" cx="332.9" cy="394.8" r="3"/>
<circle class="p0" cx="367.5" cy="347.2" r="3"/>
<circle class="p0" cx="271.1" cy="299.4" r="3"/>
<circle class="p0" cx="277.4" cy="289.0" r="3"/>
<circle class="p0" cx="237.8" cy="481.0" r="3"/>
<circle class="p0" cx="218.3" cy="328.2" r="3"/>
<circle class="p0" cx="242.8" cy="492.5" r="3"/>
<circle class="p0" cx="300.0" cy="372.5" r="3"/>
<circle class="p0" cx="386.2" cy="359.1" r="3"/>
<circle class="p0" cx="325.4" cy="346.8" r="3"/>
<circle class="p0" cx="323.2" cy="340.8" r="3"/>
<circle class="p0" cx="322.4" cy="357.7" r="3"/>
<circle class="p0" cx="302.8" cy="392.0" r="3"/>
<circle class="p0" cx="242.3" cy="300.3" r="3"/>
<circle class="p0" cx="104.2" cy="401.9" r="3"/>
<circle class="p0" cx="397.3" cy="346.8" r="3"/>
<circle class="p0" cx="193.6" cy="439.5" r="3"/>
<circle class="p0" cx="329.4" cy="345.8" r="3"/>
<circle class="p0" cx="219.9" cy="360.6" r="3"/>
<circle class="p0" cx="377.3" cy="346.2" r="3"/>
<circle class="p0" cx="288.3" cy="296.5" r="3"/>
<circle class="p0" cx="364.7" cy="353.2" r="3"/>
<circle class="p0" cx="324.6" cy="348.0" r="3"/>
<circle class="p0" cx="302.4" cy="382.3" r="3"/>
<circle class="p0" cx="257.6" cy="276.4" r="3"/>
<circle class="p0" cx="269.1" cy="334.3" r="3"/>
<circle class="p0" cx="292.4" cy="389.7" r="3"/>
<circle class="p0" cx="373.2" cy="352.8" r="3"/>
<circle class="p0" cx="196.4" cy="413.6" r="3"/>
<circle class="p0" cx="234.2" cy="319.9" r="3"/>
<circle class="p0" cx="276.3" cy="430.9" r="3"/>
<circle class="p0" cx="468.2" cy="345.1" r="3"/>
<circle class="p0" cx="301.3" cy="373.7" r="3"/>
<circle class="p0" cx="307.0" cy="351.3" r="3"/>
<circle class="p0" cx="308.9" cy="245.1" r="3"/>
<circle class="p0" cx="442.9" cy="308.8" r="3"/>
<circle class="p0" cx="248.2" cy="369.1" r="3"/>
<circle class="p0" cx="365.8" cy="348.4" r="3"/>
<circle class="p0" cx="348.3" cy="347.2" r="3"/>
<circle class="p0" cx="381.4" cy="346.5" r="3"/>
<circle class="p0" cx="274.6" cy="383.4" r="3"/>
<circle class="p0" cx="231.0" cy="309.1" r="3"/>
<circle class="p0" cx="174.5" cy="489.2" r="3"/>
<circle class="p0" cx="272.9" cy="353.7" r="3"/>
<circle class="p0" cx="401.9" cy="337.0" r="3"/>
<circle class="p0" cx="191.9" cy="305.9" r="3"/>
<circle class="p0" cx="270.0" cy="381.3" r="3"/>
<circle class="p0" cx="300.0" cy="321.2" r="3"/>
<circle class="p0" cx="339.3" cy="358.2" r="3"/>
<circle class="p0" cx="419.1" cy="365.9" r="3"/>
<circle class="p0" cx="458.1" cy="382.0" r="3"/>
<circle class="p0" cx="305.4" cy="262.9" r="3"/>
<circle class="p0" cx="252.2" cy="272.0" r="3"/>
<ellipse class="e0" cx="301.5" cy="350.5" rx="133.4" ry="86.6" transform="rotate(-4.55 301.5 350.5)"/>
<circle class="p0" cx="68" cy="42" r="4"/><text class="t2" x="76" y="46">Sustainer (200, 2-sigma ellipse)</text>
<path class="pad" d="M356.6 342.6 l6 10 h-12 z"/>
<text class="t2" x="365.6" y="352.6">pad</text>
</svg>
