<svg xmlns="http://www.w3.org/2000/svg" viewBox="0 0 620 620" width="620" height="620" role="img" aria-label="Maple 10K: 200 simulated landings">
<style>
.bg{fill:#fcfcfb}.grid{stroke:#e4e3de;stroke-width:1}.axis{stroke:#b8b7ae;stroke-width:1}.t1{fill:#1a1a19;font:600 15px system-ui,sans-serif}.t2{fill:#5f5e57;font:12px system-ui,sans-serif}.p0{fill:#2a78d6;fill-opacity:.45}.p1{fill:#d9480f;fill-opacity:.45}.e0{fill:none;stroke:#2a78d6;stroke-width:2}.e1{fill:none;stroke:#d9480f;stroke-width:2;stroke-dasharray:5 3}.pad{fill:#1a1a19}
@media (prefers-color-scheme: dark){.bg{fill:#1a1a19}.grid{stroke:#34332f}.axis{stroke:#5f5e57}.t1{fill:#ffffff}.t2{fill:#c3c2b7}.p0{fill:#3987e5}.p1{fill:#f08c4f}.e0{stroke:#3987e5}.e1{stroke:#f08c4f}.pad{fill:#ffffff}}
</style>
<rect class="bg" width="620" height="620"/>
<text class="t1" x="64" y="26">Maple 10K: 200 simulated landings</text>
<line class="grid" x1="64.0" x2="64.0" y1="56" y2="568.0"/>
<line class="grid" x1="64" x2="576.0" y1="568.0" y2="568.0"/>
<text class="t2" x="64.0" y="586.0" text-anchor="middle">-800</text>
<text class="t2" x="56" y="572.0" text-anchor="end">-600</text>
<line class="grid" x1="137.1" x2="137.1" y1="56" y2="568.0"/>
<line class="grid" x1="64" x2="576.0" y1="494.9" y2="494.9"/>
<text class="t2" x="137.1" y="586.0" text-anchor="middle">-600</text>
<text class="t2" x="56" y="498.9" text-anchor="end">-400</text>
<line class="grid" x1="210.3" x2="210.3" y1="56" y2="568.0"/>
<line class="grid" x1="64" x2="576.0" y1="421.7" y2="421.7"/>
<text class="t2" x="210.3" y="586.0" text-anchor="middle">-400</text>
<text class="t2" x="56" y="425.7" text-anchor="end">-200</text>
<line class="grid" x1="283.4" x2="283.4" y1="56" y2="568.0"/>
<line class="grid" x1="64" x2="576.0" y1="348.6" y2="348.6"/>
<text class="t2" x="283.4" y="586.0" text-anchor="middle">-200</text>
<text class="t2" x="56" y="352.6" text-anchor="end">0</text>
<line class="grid" x1="356.6" x2="356.6" y1="56" y2="568.0"/>
<line class="grid" x1="64" x2="576.0" y1="275.4" y2="275.4"/>
<text class="t2" x="356.6" y="586.0" text-anchor="middle">0</text>
<text class="t2" x="56" y="279.4" text-anchor="end">200</text>
<line class="grid" x1="429.7" x2="429.7" y1="56" y2="568.0"/>
<line class="grid" x1="64" x2="576.0" y1="202.3" y2="202.3"/>
<text class="t2" x="429.7" y="586.0" text-anchor="middle">200</text>
<text class="t2" x="56" y="206.3" text-anchor="end">400</text>
<line class="grid" x1="502.9" x2="502.9" y1="56" y2="568.0"/>
<line class="grid" x1="64" x2="576.0" y1="129.1" y2="129.1"/>
<text class="t2" x="502.9" y="586.0" text-anchor="middle">400</text>
<text class="t2" x="56" y="133.1" text-anchor="end">600</text>
<line class="grid" x1="576.0" x2="576.0" y1="56" y2="568.0"/>
<line class="grid" x1="64" x2="576.0" y1="56.0" y2="56.0"/>
<text class="t2" x="576.0" y="586.0" text-anchor="middle">600</text>
<text class="t2" x="56" y="60.0" text-anchor="end">800</text>
<text class="t2" x="320.0" y="608" text-anchor="middle">East of the pad (m)</text>
<text class="t2" transform="translate(16 312.0) rotate(-90)" text-anchor="middle">North of the pad (m)</text>
<circle class="p0" cx="410.1" cy="330.7" r="3"/>
<circle class="p0" cx="266.1" cy="350.0" r="3"/>
<circle class="p0" cx="248.6" cy="370.0" r="3"/>
<circle class="p0" cx="331.3" cy="307.3" r="3"/>
<circle class="p0" cx="271.4" cy="432.3" r="3"/>
<circle class="p0" cx="372.3" cy="356.7" r="3"/>
<circle class="p0" cx="99.9" cy="323.4" r="3"/>
<circle class="p0" cx="378.3" cy="351.1" r="3"/>
<circle class="p0" cx="377.0" cy="361.6" r="3"/>
<circle class="p0" cx="446.4" cy="344.4" r="3"/>
<circle class="p0" cx="315.3" cy="357.4" r="3"/>
<circle class="p0" cx="334.1" cy="343.9" r="3"/>
<circle class="p0" cx="218.2" cy="339.4" r="3"/>
<circle class="p0" cx="300.2" cy="344.4" r="3"/>
<circle class="p0" cx="332.7" cy="345.1" r="3"/>
<circle class="p0" cx="355.0" cy="348.6" r="3"/>
<circle class="p0" cx="356.1" cy="275.6" r="3"/>
<circle class="p0" cx="334.9" cy="335.8" r="3"/>
<circle class="p0" cx="254.1" cy="335.0" r="3"/>
<circle class="p0" cx="285.2" cy="388.7" r="3"/>
<circle class="p0" cx="305.9" cy="340.4" r="3"/>
<circle class="p0" cx="258.4" cy="355.3" r="3"/>
<circle class="p0" cx="336.8" cy="388.9" r="3"/>
<circle class="p0" cx="312.8" cy="221.3" r="3"/>
<circle class="p0" cx="251.6" cy="277.7" r="3"/>
<circle class="p0" cx="269.4" cy="361.0" r="3"/>
<circle class="p0" cx="306.9" cy="362.4" r="3"/>
<circle class="p0" cx="241.0" cy="390.9" r="3"/>
<circle class="p0" cx="265.4" cy="317.2" r="3"/>
<circle class="p0" cx="300.8" cy="321.6" r="3"/>
<circle class="p0" cx="389.8" cy="345.8" r="3"/>
<circle class="p0" cx="189.5" cy="373.7" r="3"/>
<circle class="p0" cx="357.2" cy="346.8" r="3"/>
<circle class="p0" cx="262.6" cy="350.1" r="3"/>
<circle class="p0" cx="393.4" cy="355.1" r="3"/>
<circle class="p0" cx="269.0" cy="346.8" r="3"/>
<circle class="p0" cx="195.0" cy="346.0" r="3"/>
<circle class="p0" cx="253.9" cy="441.2" r="3"/>
<circle class="p0" cx="286.7" cy="360.0" r="3"/>
<circle class="p0" cx="370.3" cy="340.0" r="3"/>
<circle class="p0" cx="352.2" cy="348.0" r="3"/>
<circle class="p0" cx="337.4" cy="370.4" r="3"/>
<circle class="p0" cx="323.9" cy="337.6" r="3"/>
<circle class="p0" cx="350.7" cy="343.8" r="3"/>
<circle class="p0" cx="317.9" cy="331.4" r="3"/>
<circle class="p0" cx="297.7" cy="413.8" r="3"/>
<circle class="p0" cx="351.6" cy="350.7" r="3"/>
<circle class="p0" cx="326.0" cy="372.5" r="3"/>
<circle class="p0" cx="345.9" cy="354.3" r="3"/>
<circle class="p0" cx="244.4" cy="339.1" r="3"/>
<circle class="p0" cx="519.2" cy="364.4" r="3"/>
<circle class="p0" cx="269.6" cy="369.2" r="3"/>
<circle class="p0" cx="274.4" cy="318.7" r="3"/>
<circle class="p0" cx="365.9" cy="337.3" r="3"/>
<circle class="p0" cx="303.9" cy="356.8" r="3"/>
<circle class="p0" cx="425.6" cy="340.0" r="3"/>
<circle class="p0" cx="319.4" cy="351.0" r="3"/>
<circle class="p0" cx="341.5" cy="350.3" r="3"/>
<circle class="p0" cx="330.8" cy="351.1" r="3"/>
<circle class="p0" cx="292.1" cy="433.0" r="3"/>
<circle class="p0" cx="350.5" cy="353.1" r="3"/>
<circle class="p0" cx="216.7" cy="350.6" r="3"/>
<circle class="p0" cx="193.9" cy="426.4" r="3"/>
<circle class="p0" cx="374.4" cy="360.0" r="3"/>
<circle class="p0" cx="295.4" cy="345.5" r="3"/>
<circle class="p0" cx="246.8" cy="268.9" r="3"/>
<circle class="p0" cx="299.9" cy="498.1" r="3"/>
<circle class="p0" cx="316.8" cy="346.8" r="3"/>
<circle class="p0" cx="228.1" cy="342.7" r="3"/>
<circle class="p0" cx="259.5" cy="354.7" r="3"/>
<circle class="p0" cx="262.6" cy="349.9" r="3"/>
<circle class="p0" cx="315.3" cy="313.9" r="3"/>
<circle class="p0" cx="285.7" cy="148.9" r="3"/>
<circle class="p0" cx="425.6" cy="351.9" r="3"/>
<circle class="p0" cx="266.6" cy="305.7" r="3"/>
<circle class="p0" cx="258.7" cy="325.8" r="3"/>
<circle class="p0" cx="385.1" cy="331.8" r="3"/>
<circle class="p0" cx="250.3" cy="267.0" r="3"/>
<circle class="p0" cx="289.3" cy="348.9" r="3"/>
<circle class="p0" cx="346.0" cy="340.0" r="3"/>
<circle class="p0" cx="378.8" cy="353.5" r="3"/>
<circle class="p0" cx="320.4" cy="399.9" r="3"/>
<circle class="p0" cx="222.0" cy="399.8" r="3"/>
<circle class="p0" cx="362.3" cy="346.0" r="3"/>
<circle class="p0" cx="273.6" cy="393.7" r="3"/>
<circle class="p0" cx="329.0" cy="363.9" r="3"/>
<circle class="p0" cx="367.4" cy="350.0" r="3"/>
<circle class="p0" cx="230.1" cy="377.6" r="3"/>
<circle class="p0" cx="149.7" cy="357.8" r="3"/>
<circle class="p0" cx="277.2" cy="384.2" r="3"/>
<circle class="p0" cx="167.2" cy="365.4" r="3"/>
<circle class="p0" cx="275.6" cy="287.9" r="3"/>
<circle class="p0" cx="317.1" cy="327.1" r="3"/>
<circle class="p0" cx="254.3" cy="313.4" r="3"/>
<circle class="p0" cx="327.2" cy="387.2" r="3"/>
<circle class="p0" cx="322.2" cy="365.0" r="3"/>
<circle class="p0" cx="244.0" cy="310.8" r="3"/>
<circle class="p0" cx="252.9" cy="229.3" r="3"/>
<circle class="p0" cx="293.9" cy="361.7" r="3"/>
<circle class="p0" cx="289.8" cy="381.6" r="3"/>
<circle class="p0" cx="150.3" cy="301.5" r="3"/>
<circle class="p0" cx="342.8" cy="358.6" r="3"/>
<circle class="p0" cx="314.6" cy="321.2" r="3"/>
<circle class="p0" cx="367.4" cy="342.2" r="3"/>
<circle class="p0" cx="296.7" cy="363.3" r="3"/>
<circle class="p0" cx="292.9" cy="369.0" r="3"/>
<circle class="p0" cx="262.6" cy="389.3" r="3"/>
<circle class="p0" cx="285.9" cy="328.8" r="3"/>
<circle class="p0" cx="386.4" cy="344.0" r="3"/>
<circle class="p0" cx="273.9" cy="246.0" r="3"/>
<circle class="p0" cx="336.1" cy="417.4" r="3"/>
<circle class="p0" cx="357.6" cy="348.9" r="3"/>
<circle class="p0" cx="300.3" cy="359.4" r="3"/>
<circle class="p0" cx="273.4" cy="353.1" r="3"/>
<circle class="p0" cx="331.3" cy="358.5" r="3"/>
<circle class="p0" cx="306.7" cy="360.7" r="3"/>
<circle class="p0" cx="206.9" cy="276.3" r="3"/>
<circle class="p0" cx="399.0" cy="349.5" r="3"/>
<circle class="p0" cx="259.8" cy="345.1" r="3"/>
<circle class="p0" cx="245.2" cy="343.3" r="3"/>
<circle class="p0" cx="298.8" cy="327.3" r="3"/>
<circle class="p0" cx="219.9" cy="373.3" r="3"/>
<circle class="p0" cx="272.2" cy="394.5" r="3"/>
<circle class="p0" cx="248.8" cy="386.6" r="3"/>
<circle class="p0" cx="309.1" cy="419.7" r="3"/>
<circle class="p0" cx="224.4" cy="355.5" r="3"/>
<circle class="p0" cx="267.7" cy="347.8" r="3"/>
<circle class="p0" cx="334.2" cy="328.8" r="3"/>
<circle class="p0" cx="331.7" cy="346.9" r="3"/>
<circle class="p0" cx="350.1" cy="349.3" r="3"/>
<circle class="p0" cx="438.5" cy="335.1" r="3"/>
<circle class="p0" cx="207.2" cy="303.0" r="3"/>
<circle class="p0" cx="317.3" cy="358.8" r="3"/>
<circle class="p0" cx="351.5" cy="349.2" r="3"/>
<circle class="p0" cx="360.9" cy="343.6" r="3"/>
<circle class="p0" cx="236.4" cy="302.1" r="3"/>
<circle class="p0" cx="326.7" cy="327.0" r="3"/>
<circle class="p0" cx="308.0" cy="366.1" r="3"/>
<circle class="p0" cx="330.0" cy="349.7" r="3"/>
<circle class="p0" cx="331.2" cy="367.0" r="3"/>
<circle class="p0" cx="273.4" cy="343.7" r="3"/>
<circle class="p0" cx="438.7" cy="319.7" r="3"/>
<circle class="p0" cx="199.8" cy="379.3" r="3"/>
<circle class="p0" cx="278.0" cy="395.3" r="3"/>
<circle class="p0" cx="195.1" cy="371.7" r="3"/>
<circle class="p0" cx="262.1" cy="382.0" r="3"/>
<circle class="p0" cx="250.8" cy="372.8" r="3"/>
<circle class="p0" cx="332.9" cy="394.8" r="3"/>
<circle class="p0" cx="368.0" cy="347.1" r="3"/>
<circle class="p0" cx="270.7" cy="299.1" r="3"/>
<circle class="p0" cx="277.3" cy="289.0" r="3"/>
<circle class="p0" cx="237.1" cy="481.7" r="3"/>
<circle class="p0" cx="218.6" cy="328.2" r="3"/>
<circle class="p0" cx="242.8" cy="492.5" r="3"/>
<circle class="p0" cx="299.7" cy="372.6" r="3"/>
<circle class="p0" cx="386.4" cy="359.1" r="3"/>
<circle class="p0" cx="324.6" cy="346.7" r="3"/>
<circle class="p0" cx="322.6" cy="340.6" r="3"/>
<circle class="p0" cx="322.5" cy="357.7" r="3"/>
<circle class="p0" cx="302.7" cy="392.1" r="3"/>
<circle class="p0" cx="240.5" cy="299.6" r="3"/>
<circle class="p0" cx="104.0" cy="402.0" r="3"/>
<circle class="p0" cx="397.4" cy="346.8" r="3"/>
<circle class="p0" cx="193.5" cy="439.5" r="3"/>
<circle class="p0" cx="329.8" cy="345.9" r="3"/>
<circle class="p0" cx="216.0" cy="361.2" r="3"/>
<circle class="p0" cx="377.3" cy="346.2" r="3"/>
<circle class="p0" cx="289.1" cy="297.2" r="3"/>
<circle class="p0" cx="364.4" cy="353.1" r="3"/>
<circle class="p0" cx="323.0" cy="348.0" r="3"/>
<circle class="p0" cx="302.1" cy="382.5" r="3"/>
<circle class="p0" cx="257.2" cy="276.2" r="3"/>
<circle class="p0" cx="268.4" cy="334.2" r="3"/>
<circle class="p0" cx="290.1" cy="391.2" r="3"/>
<circle class="p0" cx="374.0" cy="353.0" r="3"/>
<circle class="p0" cx="196.4" cy="413.6" r="3"/>
<circle class="p0" cx="234.3" cy="319.9" r="3"/>
<circle class="p0" cx="276.5" cy="430.7" r="3"/>
<circle class="p0" cx="469.3" cy="345.1" r="3"/>
<circle class="p0" cx="303.1" cy="372.9" r="3"/>
<circle class="p0" cx="305.4" cy="351.3" r="3"/>
<circle class="p0" cx="312.1" cy="252.6" r="3"/>
<circle class="p0" cx="443.0" cy="308.7" r="3"/>
<circle class="p0" cx="247.0" cy="369.3" r="3"/>
<circle class="p0" cx="365.5" cy="348.4" r="3"/>
<circle class="p0" cx="348.0" cy="347.1" r="3"/>
<circle class="p0" cx="380.6" cy="346.5" r="3"/>
<circle class="p0" cx="274.9" cy="383.3" r="3"/>
<circle class="p0" cx="230.2" cy="308.9" r="3"/>
<circle class="p0" cx="174.4" cy="489.3" r="3"/>
<circle class="p0" cx="272.9" cy="353.7" r="3"/>
<circle class="p0" cx="400.5" cy="337.3" r="3"/>
<circle class="p0" cx="191.8" cy="305.9" r="3"/>
<circle class="p0" cx="270.3" cy="381.2" r="3"/>
<circle class="p0" cx="300.5" cy="321.5" r="3"/>
<circle class="p0" cx="340.0" cy="357.8" r="3"/>
<circle class="p0" cx="417.1" cy="365.2" r="3"/>
<circle class="p0" cx="458.9" cy="382.3" r="3"/>
<circle class="p0" cx="306.3" cy="264.3" r="3"/>
<circle class="p0" cx="252.6" cy="272.3" r="3"/>
<ellipse class="e0" cx="301.4" cy="350.4" rx="133.2" ry="86.5" transform="rotate(-4.54 301.4 350.4)"/>
<circle class="p0" cx="68" cy="42" r="4"/><text class="t2" x="76" y="46">Sustainer (200, 2-sigma ellipse)</text>
<path class="pad" d="M356.6 342.6 l6 10 h-12 z"/>
<text class="t2" x="365.6" y="352.6">pad</text>
</svg>
